<svg width="109.43mm" height="31.444mm" version="1.1" viewBox="0 0 109.43 31.444" xmlns="http://www.w3.org/2000/svg">
 <g transform="translate(-50.283 -118.73)">
  <g fill="#222" stroke="#fff" stroke-width=".5" aria-label="CRDV">
   <path d="m75.73 139.32q-0.14469 3.1419-1.695 5.5604-1.5503 2.3978-4.3615 3.7207-2.7905 1.3229-6.3872 1.3229-5.9324 0-9.3431-3.8654-3.4106-3.8654-3.4106-10.914v-1.4883q0-4.4235 1.5296-7.7308 1.5503-3.328 4.4442-5.1263 2.8939-1.819 6.6973-1.819 5.4777 0 8.8057 2.8939 3.328 2.8732 3.7827 7.9375h-7.2347q-0.08268-2.7492-1.3849-3.9481-1.3022-1.1989-3.9687-1.1989-2.7078 0-3.9687 2.0257-1.2609 2.0257-1.3229 6.4699v2.1291q0 4.8162 1.1989 6.8833 1.2196 2.067 4.1755 2.067 2.5011 0 3.8241-1.1782t1.4056-3.7414z"/>
   <path d="m90.345 138.89h-3.9274v10.625h-7.2554v-30.096h11.844q5.3537 0 8.3716 2.3771 3.0179 2.3771 3.0179 6.7179 0 3.1419-1.2816 5.209-1.2609 2.0671-3.9687 3.3486l6.2838 12.134v0.31006h-7.7721zm-3.9274-5.6017h4.5889q2.0671 0 3.1006-1.0749 1.0542-1.0955 1.0542-3.0386t-1.0542-3.0386q-1.0542-1.1162-3.1006-1.1162h-4.5889z"/>
   <path d="m106.78 149.51v-30.096h9.6945q3.9894 0 7.1727 1.819 3.1833 1.7983 4.9609 5.1056 1.7983 3.2866 1.819 7.3794v1.3849q0 4.1341-1.757 7.4207-1.7363 3.266-4.9196 5.1263-3.1626 1.8397-7.0693 1.8604zm7.2554-24.495v18.914h2.5218q3.1212 0 4.7956-2.2118 1.6743-2.2324 1.6743-6.6146v-1.3022q0-4.3615-1.6743-6.5732-1.6743-2.2118-4.8782-2.2118z"/>
   <path d="m145.37 141.33 5.9945-21.911h8.1029l-10.129 30.096h-7.9375l-10.046-30.096h8.0408z"/>
  </g>
 </g>
</svg>
