<svg xmlns="http://www.w3.org/2000/svg" xmlns:xlink="http://www.w3.org/1999/xlink" width="256" height="168" viewBox="0 0 192 126"><defs><symbol id="b" overflow="visible"><path d="M2.703 0q-.815 0-1.25-.39-.438-.406-.437-1.204v-3.36q-.001-.794.437-1.187.435-.405 1.25-.406h1.328v.719H2.61q-.345.002-.562.203a.65.65 0 0 0-.219.5v3.719c0 .187.07.355.219.5a.78.78 0 0 0 .562.203h1.422V0Zm0 0" style="stroke:none"/></symbol><symbol id="c" overflow="visible"><path d="M2.828 0a.78.78 0 0 1-.562-.219Q2.03-.452 2.03-.937v-4.907H.656v-.703h2.172v5.563q0 .16.063.218.076.064.265.063h1.235V0Zm0 0" style="stroke:none"/></symbol><symbol id="d" overflow="visible"><path d="M2.969-6.547v.844h-.89v-.844ZM.75-3.969v-.703h2.172v3.969h1.375V0H2.125v-3.969Zm0 0" style="stroke:none"/></symbol><symbol id="e" overflow="visible"><path d="M2.469 0Q1.637.001 1.25-.344.875-.702.875-1.5v-1.672q-.001-.81.344-1.156.34-.342 1.156-.344h.438q.655 0 1 .375.341.363.343 1.078v1.203H1.672v.704q-.002.3.172.453.186.157.531.156h1.484V0Zm.906-3.406c0-.164-.055-.301-.156-.406a.54.54 0 0 0-.39-.157H2.28c-.23 0-.39.055-.484.156-.086.106-.125.258-.125.454v.656h1.703Zm0 0" style="stroke:none"/></symbol><symbol id="f" overflow="visible"><path d="M1.563-4.672v.219q.28-.218.75-.219h.421q.762 0 1.125.36.375.344.375 1.14V0h-.796v-3.36a.57.57 0 0 0-.172-.437.57.57 0 0 0-.438-.172h-.61q-.315.001-.468.172a.5.5 0 0 0-.14.344V0H.811v-4.672Zm0 0" style="stroke:none"/></symbol><symbol id="g" overflow="visible"><path d="M2.875 0q-.487 0-.734-.297-.251-.311-.25-.828v-2.844H1v-.703h.89v-1.125h.798v1.125h1.359v.703h-1.36v2.89q0 .205.094.298.106.08.328.078h.938V0Zm0 0" style="stroke:none"/></symbol><symbol id="h" overflow="visible"><path d="M4.11-1.594c0 .532-.15.934-.438 1.203q-.44.392-1.25.391H1.094v-.703h1.422q.34 0 .547-.203a.7.7 0 0 0 .218-.5v-.969a.7.7 0 0 0-.14-.453c-.094-.125-.243-.188-.438-.188h-.281c-.461 0-.824-.132-1.094-.406q-.391-.405-.39-1.172v-.36q0-.794.421-1.187.435-.405 1.25-.406h1.344v.719H2.516q-.345.002-.563.203a.68.68 0 0 0-.203.5v.703q0 .299.188.484a.65.65 0 0 0 .484.188h.281c.438 0 .781.133 1.031.39q.375.376.375 1.157Zm0 0" style="stroke:none"/></symbol><symbol id="i" overflow="visible"><path d="M1.61-6.547v2.063q.28-.188.702-.188h.422q.762 0 1.125.36.375.344.375 1.14V0h-.796v-3.36a.57.57 0 0 0-.172-.437.57.57 0 0 0-.438-.172h-.61c-.198 0-.35.055-.452.156a.46.46 0 0 0-.157.329V0H.813v-6.547Zm0 0" style="stroke:none"/></symbol><symbol id="j" overflow="visible"><path d="M3.89 0a.6.6 0 0 1-.265-.078.8.8 0 0 1-.25-.203.66.66 0 0 1-.562.281h-.829q-.72 0-1.046-.281-.315-.282-.313-.985v-.187q0-1.437 1.36-1.438h1.171v-.468q0-.295-.187-.453c-.117-.102-.29-.157-.516-.157H1v-.703h1.36c.538 0 .937.121 1.187.36q.389.344.39 1.14v2.235q0 .14.11.218.106.064.36.063V0ZM2.72-.703c.187 0 .304-.04.36-.125a.7.7 0 0 0 .077-.344v-1.031H1.984a.52.52 0 0 0-.406.172.53.53 0 0 0-.156.39v.47q-.001.252.11.359.105.11.359.109Zm0 0" style="stroke:none"/></symbol><symbol id="k" overflow="visible"><path d="M1.61-.703V-3.97H.936v-.703H2.36v.25c.207-.164.457-.25.75-.25h.97v.75H3.015q-.3 0-.453.188a.73.73 0 0 0-.157.39v2.64h1.016V0H.938v-.703Zm0 0" style="stroke:none"/></symbol><symbol id="l" overflow="visible"><path d="M3.5-.219C3.3-.07 3.05 0 2.75 0h-.375q-.832.001-1.219-.344Q.781-.702.781-1.5v-1.672q0-.796.39-1.14.389-.36 1.204-.36h1.078v-1.875h.797V0H3.5Zm-.656-.484q.312.001.453-.156a.54.54 0 0 0 .156-.36v-2.75H2.281c-.23 0-.406.055-.531.156q-.174.16-.172.454v2.047q-.002.3.172.453.186.157.531.156Zm0 0" style="stroke:none"/></symbol><symbol id="m" overflow="visible"><path d="M1.89-6.547v5.844H3.97V0h-2.89v-6.547Zm0 0" style="stroke:none"/></symbol><symbol id="n" overflow="visible"><path d="M4.266-1.5c0 .531-.133.918-.391 1.156Q3.481.001 2.672 0h-.313q-.815.001-1.203-.344Q.781-.702.781-1.5v-1.672q0-.796.375-1.14.388-.36 1.203-.36h.313q.81 0 1.203.36.388.344.39 1.14Zm-.797-1.86q0-.293-.188-.453c-.117-.101-.289-.156-.515-.156h-.5c-.23 0-.407.055-.532.156-.117.106-.171.258-.171.454v2.047c0 .199.054.351.171.453q.187.157.532.156h.5q.34.001.515-.156.188-.154.188-.453Zm0 0" style="stroke:none"/></symbol><symbol id="o" overflow="visible"><path d="M2.703 0Q1.888.001 1.5-.344 1.125-.702 1.125-1.5v-1.672q0-.796.375-1.14.388-.36 1.203-.36h1.219v.703H2.609c-.23 0-.402.055-.515.156q-.174.16-.172.454v2.047q-.002.3.172.453.17.157.515.156h1.313V0Zm0 0" style="stroke:none"/></symbol><symbol id="p" overflow="visible"><path d="M4.281-1.469q0 .8-.375 1.14-.363.33-1.219.329H.767v-6.547h1.812q.845.002 1.266.344.435.345.437 1.125ZM3.47-5.172a.66.66 0 0 0-.188-.484.68.68 0 0 0-.5-.188H1.578v5.14h1.203q.34.001.516-.155.17-.17.172-.532Zm0 0" style="stroke:none"/></symbol><symbol id="N" overflow="visible"><path d="M1.469-2.703V0H.656v-6.547h1.75q.795 0 1.203.36.406.346.407 1.109v.89q0 1.067-.844 1.313L4.469 0h-.875L2.375-2.703Zm1.734-2.469q0-.34-.172-.5-.158-.17-.515-.172H1.469v2.438h1.047q.357 0 .515-.156.171-.17.172-.532Zm0 0" style="stroke:none"/></symbol><symbol id="O" overflow="visible"><path d="M1.11-4.672v.219a.82.82 0 0 1 .577-.219h.047q.655 0 .922.375.31-.375.813-.375h.062c.383 0 .664.102.844.297q.265.282.266 1.016V0h-.75v-3.36c0-.257-.028-.437-.079-.53-.054-.102-.171-.157-.359-.157h-.047c-.187 0-.32.07-.39.203a.9.9 0 0 0-.125.422V0h-.735v-3.36c0-.257-.031-.437-.094-.53-.062-.102-.18-.157-.343-.157h-.063q-.268.001-.39.172a.6.6 0 0 0-.11.36V0h-.75v-4.672Zm0 0" style="stroke:none"/></symbol><symbol id="R" overflow="visible"><path d="M2.89-2.203h-.765l-.922-3.672V0H.5v-6.547h1.297l.75 3.344.75-3.344h1.265V0h-.734v-5.875Zm0 0" style="stroke:none"/></symbol><symbol id="S" overflow="visible"><path d="M.594-4.672h.86L2.546-.64l1.062-4.03h.844L3.11 0H1.953Zm0 0" style="stroke:none"/></symbol><symbol id="T" overflow="visible"><path d="M2.547-2.344 2.03 0h-.86L.329-4.672h.797l.531 3.703.61-2.86h.609l.563 2.86.53-3.703h.75L3.892 0h-.907Zm0 0" style="stroke:none"/></symbol><symbol id="U" overflow="visible"><path d="M1.61-1.656 1.25 0H.422L2-6.547h1.078L4.625 0h-.828l-.36-1.656ZM3.28-2.36l-.765-3.563-.75 3.563Zm0 0" style="stroke:none"/></symbol><symbol id="q" overflow="visible"><path d="M3.781-1.469q0 .736-.406 1.11c-.262.242-.64.359-1.14.359h-1.22v-.656h1.298q.327 0 .515-.188a.6.6 0 0 0 .203-.453v-.906a.6.6 0 0 0-.14-.406q-.128-.171-.391-.172h-.25c-.43 0-.766-.125-1.016-.375Q.86-3.53.86-4.25v-.328c0-.477.133-.836.407-1.078q.406-.375 1.156-.375H3.64v.656H2.328a.72.72 0 0 0-.515.188.6.6 0 0 0-.204.453v.656c0 .18.055.328.172.453a.6.6 0 0 0 .453.172H2.5q.61 0 .938.36.341.346.343 1.062Zm0 0" style="stroke:none"/></symbol><symbol id="r" overflow="visible"><path d="M3.766-6.031v.625H1.64v1.968h1.906v.641H1.64v2.172h2.125V0H.89v-6.031Zm0 0" style="stroke:none"/></symbol><symbol id="s" overflow="visible"><path d="M1.75-6.031v5.375h1.922V0H.984v-6.031Zm0 0" style="stroke:none"/></symbol><symbol id="t" overflow="visible"><path d="M2.5 0C2 0 1.613-.117 1.344-.36 1.07-.61.937-.976.937-1.468v-3.11c0-.476.133-.835.407-1.077q.406-.375 1.156-.375h1.219v.656H2.406a.72.72 0 0 0-.515.188.6.6 0 0 0-.203.453v3.437c0 .18.066.328.203.453a.72.72 0 0 0 .515.188H3.72V0Zm0 0" style="stroke:none"/></symbol><symbol id="u" overflow="visible"><path d="M1.953 0v-5.375H.578v-.656h3.5v.656H2.703V0Zm0 0" style="stroke:none"/></symbol><symbol id="v" overflow="visible"><path d="M1.016-4.312v.203a.76.76 0 0 1 .53-.203h.063q.592.002.844.343a.95.95 0 0 1 .75-.344h.063q.514.001.765.266c.164.18.25.496.25.953V0h-.687v-3.11q-.002-.341-.078-.484-.065-.14-.328-.14H3.14c-.18 0-.297.062-.36.187a.9.9 0 0 0-.11.375V0h-.687v-3.11q0-.356-.093-.484-.082-.14-.297-.14H1.53q-.253.001-.36.156a.5.5 0 0 0-.109.328V0H.375v-4.312Zm0 0" style="stroke:none"/></symbol><symbol id="w" overflow="visible"><path d="M2.281 0q-.767.002-1.125-.312c-.23-.22-.343-.57-.343-1.063v-1.562c0-.489.101-.836.312-1.047.219-.22.57-.328 1.063-.328h.406c.406 0 .71.117.922.343q.328.345.328 1v1.11H1.547v.656q-.001.27.156.422.17.14.484.14h1.376V0Zm.844-3.14a.49.49 0 0 0-.156-.376.47.47 0 0 0-.36-.156h-.5c-.21 0-.355.055-.437.156-.086.094-.125.23-.125.407v.609h1.578Zm0 0" style="stroke:none"/></symbol><symbol id="x" overflow="visible"><path d="M1.484-.64v-3.032H.86v-.64h1.329v.234q.279-.234.687-.234h.89v.687h-.984a.47.47 0 0 0-.406.188.63.63 0 0 0-.156.343V-.64h.953V0H.859v-.64Zm0 0" style="stroke:none"/></symbol><symbol id="y" overflow="visible"><path d="M4.031.297q0 .592-.36.875c-.23.195-.589.297-1.077.297H.797V.812h1.875q.31 0 .469-.125a.35.35 0 0 0 .156-.296V.109a.37.37 0 0 0-.156-.312c-.106-.07-.262-.11-.47-.11H1.189v-1.203a.97.97 0 0 1-.438-.437C.664-2.148.625-2.406.625-2.72v-.219c0-.476.117-.828.36-1.046q.358-.329 1.109-.328h1.812v1.593q0 .658-.36 1.016-.362.361-.937.36h-.687v.374h.672c.488 0 .847.102 1.078.297q.359.282.36.875ZM2.61-1.984q.263.002.391-.172a.8.8 0 0 0 .172-.36v-1.156H2c-.21 0-.371.055-.484.156q-.158.141-.157.407v.562q-.001.27.157.422.169.14.484.14Zm0 0" style="stroke:none"/></symbol><symbol id="B" overflow="visible"><path d="M1.438-4.312v.203q.264-.201.687-.203h.313q.762 0 1.109.328.359.314.36 1.047v1.562q-.002.72-.36 1.047Q3.186 0 2.437 0h-.953v1.469H.75v-5.781Zm.609.64c-.188 0-.328.055-.422.156a.5.5 0 0 0-.14.329v2.546H2.53q.311 0 .469-.14a.54.54 0 0 0 .172-.422V-3.11A.5.5 0 0 0 3-3.516c-.105-.101-.262-.156-.469-.156Zm0 0" style="stroke:none"/></symbol><symbol id="C" overflow="visible"><path d="M2.61 0a.72.72 0 0 1-.516-.203c-.149-.133-.219-.352-.219-.656v-4.532H.609v-.64h2v5.125q0 .143.063.203.076.063.234.062h1.14V0Zm0 0" style="stroke:none"/></symbol><symbol id="D" overflow="visible"><path d="M2.766-.86V0H1.89v-.86Zm0 0" style="stroke:none"/></symbol><symbol id="E" overflow="visible"><path d="M1.953-.625v-4.781h-.781v-.625h2.297v.625h-.766v4.781h.766V0H1.172v-.625Zm0 0" style="stroke:none"/></symbol><symbol id="F" overflow="visible"><path d="M3.5-6.984h.719L1.156.953H.438Zm0 0" style="stroke:none"/></symbol><symbol id="G" overflow="visible"><path d="M3.984-1.469q0 .736-.406 1.11c-.262.242-.64.359-1.14.359h-.22c-.5 0-.886-.117-1.155-.36C.8-.61.672-.976.672-1.468V-6.03h.75v4.734c0 .18.062.328.187.453a.72.72 0 0 0 .516.188h.39q.33 0 .516-.188a.6.6 0 0 0 .203-.453V-6.03h.75Zm0 0" style="stroke:none"/></symbol><symbol id="H" overflow="visible"><path d="M3.953-1.36q-.002.738-.344 1.048Q3.264.002 2.484 0H.704v-6.031h1.671q.78 0 1.172.312.406.317.406 1.032Zm-.75-3.406a.62.62 0 0 0-.172-.453.65.65 0 0 0-.469-.172H1.454v4.75h1.11q.326.001.484-.156c.101-.101.156-.265.156-.484Zm0 0" style="stroke:none"/></symbol><symbol id="I" overflow="visible"><path d="M3.172-.203A1.2 1.2 0 0 1 2.469 0h-.281Q1.482 0 1.14-.328.797-.656.797-1.375v-2.937h.734v3.109q-.001.253.157.406a.54.54 0 0 0 .406.156h.469q.279 0 .406-.14a.5.5 0 0 0 .156-.313v-3.218h.734V0h-.687Zm0 0" style="stroke:none"/></symbol><symbol id="J" overflow="visible"><path d="M3.64-1.078q-.002.55-.343.812c-.219.18-.54.266-.953.266H1.063v-.64h1.375q.233 0 .343-.094a.38.38 0 0 0 .125-.297v-.453c0-.258-.125-.391-.375-.391H2.22c-.406 0-.711-.086-.906-.266q-.298-.264-.297-.828v-.25q0-.575.328-.828.326-.265.968-.266H3.47v.641h-1.25c-.137 0-.25.04-.344.11-.086.062-.125.156-.125.28v.313q-.001.205.11.297a.5.5 0 0 0 .312.094h.281q.576 0 .875.281.312.283.313.828Zm0 0" style="stroke:none"/></symbol><symbol id="L" overflow="visible"><path d="M2.64 0q-.437 0-.671-.281C1.82-.47 1.75-.72 1.75-1.031v-2.64H.922v-.642h.828v-1.03h.719v1.03h1.265v.641H2.47v2.688q0 .188.094.265c.07.055.171.078.296.078h.875V0Zm0 0" style="stroke:none"/></symbol><symbol id="M" overflow="visible"><path d="M2.734-6.031v.765h-.812v-.765ZM.688-3.671v-.642h2V-.64h1.28V0H1.954v-3.672Zm0 0" style="stroke:none"/></symbol><symbol id="P" overflow="visible"><path d="M1.375 0H.688v-6.031h1.218l1.36 5.39v-5.39h.703V0H2.734L1.375-5.406Zm0 0" style="stroke:none"/></symbol><symbol id="Q" overflow="visible"><path d="M1.36-2.5V0H.61v-6.031h1.609q.734 0 1.11.328.374.314.374 1.016v.828c0 .648-.258 1.054-.765 1.218L4.125 0h-.812l-1.11-2.5Zm1.593-2.266c0-.218-.055-.375-.156-.468q-.14-.155-.469-.157H1.36v2.25h.97q.327.002.468-.156c.101-.101.156-.265.156-.484Zm0 0" style="stroke:none"/></symbol><symbol id="V" overflow="visible"><path d="M-1.469-3.781q.736 0 1.11.406c.242.262.359.64.359 1.14v1.22h-.656v-1.297q0-.33-.188-.516a.6.6 0 0 0-.453-.203h-.906a.6.6 0 0 0-.406.14q-.171.128-.172.391v.25c0 .43-.125.766-.375 1.016Q-3.53-.86-4.25-.86h-.328c-.477 0-.836-.133-1.078-.407q-.375-.406-.375-1.156V-3.64h.656v1.313q0 .316.188.515a.6.6 0 0 0 .453.204h.656c.18 0 .328-.055.453-.172a.6.6 0 0 0 .172-.453V-2.5q0-.61.36-.937.346-.342 1.062-.344Zm0 0" style="stroke:none"/></symbol><symbol id="W" overflow="visible"><path d="M-6.031-3.766h.625v2.125h1.968v-1.906h.641v1.906h2.172v-2.125H0V-.89h-6.031Zm0 0" style="stroke:none"/></symbol><symbol id="X" overflow="visible"><path d="M-6.031-1.75h5.375v-1.922H0v2.688h-6.031Zm0 0" style="stroke:none"/></symbol><symbol id="Y" overflow="visible"><path d="M0-2.5c0 .5-.117.887-.36 1.156-.25.274-.617.407-1.109.407h-3.11c-.476 0-.835-.133-1.077-.407q-.375-.406-.375-1.156v-1.219h.656v1.313q0 .316.188.515a.6.6 0 0 0 .453.204h3.437c.18 0 .328-.067.453-.204a.72.72 0 0 0 .188-.515V-3.72H0Zm0 0" style="stroke:none"/></symbol><symbol id="Z" overflow="visible"><path d="M0-1.953h-5.375v1.375h-.656v-3.5h.656v1.375H0Zm0 0" style="stroke:none"/></symbol><symbol id="aa" overflow="visible"><path d="M-4.36-1.469c-.663 0-1.202-.082-1.609-.25a3.4 3.4 0 0 1-1.11-.718v-.75q.505.41.845.609.344.204.765.297.425.08 1.094.078h2.703c.461 0 .828-.024 1.11-.078q.42-.093.75-.297.339-.2.843-.61v.75c-.312.313-.68.555-1.093.72q-.623.25-1.625.25Zm0 0" style="stroke:none"/></symbol><symbol id="ab" overflow="visible"><path d="M0-3.594q0 .11-.062.25a.7.7 0 0 1-.204.219q.268.205.266.531v.766c0 .437-.086.758-.266.953q-.262.298-.906.297h-.172q-1.326 0-1.328-1.266v-1.062h-.437a.5.5 0 0 0-.407.172c-.101.105-.156.261-.156.468v1.344h-.64v-1.25c0-.5.109-.867.328-1.11.218-.238.57-.359 1.047-.359H-.86q.129 0 .187-.093c.043-.07.063-.188.063-.344H0Zm-.64 1.078q.001-.248-.126-.312a.6.6 0 0 0-.312-.078h-.953v1.078q.002.222.156.375.142.14.36.14h.437q.222 0 .328-.093c.074-.07.11-.188.11-.344Zm0 0" style="stroke:none"/></symbol><symbol id="ac" overflow="visible"><path d="M-1.078-3.64q.55.002.812.343c.18.219.266.54.266.953v1.281h-.64v-1.374q0-.234-.094-.344a.38.38 0 0 0-.297-.125h-.453c-.258 0-.391.125-.391.375v.312c0 .406-.086.711-.266.906q-.264.299-.828.297h-.25q-.575 0-.828-.328-.265-.326-.266-.968V-3.47h.641v1.25c0 .137.04.25.11.344.062.086.156.125.28.125h.313q.205.001.297-.11a.5.5 0 0 0 .094-.312v-.281q0-.576.281-.875.283-.312.828-.313Zm0 0" style="stroke:none"/></symbol><symbol id="ad" overflow="visible"><path d="M.813-1.547q-.001-.217-.079-.312C.691-1.93.602-1.984.47-2.016L0-2.14v.172L-4.312-.547v-.797l3.609-1.078-3.61-.937v-.75L.47-2.766q.434.112.656.282a.73.73 0 0 1 .281.359q.062.205.063.516v.422H.812Zm0 0" style="stroke:none"/></symbol><symbol id="ae" overflow="visible"><path d="M-4.312-1.437h.203q-.201-.265-.203-.688v-.406q0-.686.328-1.031c.218-.227.57-.344 1.047-.344H0v.734h-3.11c-.163 0-.3.055-.406.156a.53.53 0 0 0-.156.407v.562c0 .188.055.328.156.422q.158.14.329.14H0v.735h-4.312Zm0 0" style="stroke:none"/></symbol><symbol id="af" overflow="visible"><path d="M0-2.5q.002.75-.312 1.11c-.22.242-.57.359-1.063.359h-1.562c-.477 0-.829-.117-1.047-.36q-.329-.358-.328-1.109v-1.11h.64v1.188c0 .219.055.387.156.5q.141.158.407.156h1.906q.27.001.422-.156.14-.17.14-.5v-1.187H0Zm0 0" style="stroke:none"/></symbol><symbol id="ag" overflow="visible"><path d="M-1.687-3.187q1.002.001 1.625.25.622.25 1.093.718v.75a8 8 0 0 0-.843-.61 2.3 2.3 0 0 0-.75-.28c-.282-.063-.649-.094-1.11-.094h-2.703q-.67 0-1.094.094a2.5 2.5 0 0 0-.765.28q-.34.206-.844.61v-.75q.487-.467 1.11-.719c.406-.164.945-.25 1.609-.25Zm0 0" style="stroke:none"/></symbol><clipPath id="a"><path d="M0 0h192v125.844H0Zm0 0"/></clipPath><clipPath id="z"><path d="M111 101h25v24.125h-25Zm0 0"/></clipPath><clipPath id="A"><path d="M135 101h25v24.125h-25Zm0 0"/></clipPath></defs><g clip-path="url(#a)"><path d="M0 0h192v125.844H0Zm0 0" style="stroke:none;fill-rule:nonzero;fill:#fff;fill-opacity:1"/></g><path d="M.5 1h50.002v20H.5Zm0 0" style="fill-rule:nonzero;fill:#fff;fill-opacity:1;stroke-width:1;stroke-linecap:butt;stroke-linejoin:miter;stroke:#222;stroke-opacity:1;stroke-miterlimit:4" transform="translate(.36 .36)scale(.7191)"/><use xlink:href="#b" x="3.551" y="11.506" style="fill:#222;fill-opacity:1"/><use xlink:href="#c" x="8.599" y="11.506" style="fill:#222;fill-opacity:1"/><use xlink:href="#d" x="13.647" y="11.506" style="fill:#222;fill-opacity:1"/><use xlink:href="#e" x="18.695" y="11.506" style="fill:#222;fill-opacity:1"/><use xlink:href="#f" x="23.743" y="11.506" style="fill:#222;fill-opacity:1"/><use xlink:href="#g" x="28.791" y="11.506" style="fill:#222;fill-opacity:1"/><path d="M86.001 143.43h80v20H86Zm0 0" style="fill-rule:nonzero;fill:#222;fill-opacity:1;stroke-width:1;stroke-linecap:butt;stroke-linejoin:miter;stroke:#222;stroke-opacity:1;stroke-miterlimit:4" transform="translate(.36 .36)scale(.7191)"/><use xlink:href="#h" x="75.461" y="113.618" style="fill:#fff;fill-opacity:1"/><use xlink:href="#i" x="80.509" y="113.618" style="fill:#fff;fill-opacity:1"/><use xlink:href="#j" x="85.557" y="113.618" style="fill:#fff;fill-opacity:1"/><use xlink:href="#k" x="90.605" y="113.618" style="fill:#fff;fill-opacity:1"/><use xlink:href="#e" x="95.653" y="113.618" style="fill:#fff;fill-opacity:1"/><use xlink:href="#l" x="100.701" y="113.618" style="fill:#fff;fill-opacity:1"/><path d="M96.002 97.43H156v20.002H96.002Zm0 0" style="fill-rule:nonzero;fill:#222;fill-opacity:1;stroke-width:1;stroke-linecap:butt;stroke-linejoin:miter;stroke:#222;stroke-opacity:1;stroke-miterlimit:4" transform="translate(.36 .36)scale(.7191)"/><use xlink:href="#m" x="77.978" y="80.539" style="fill:#fff;fill-opacity:1"/><use xlink:href="#n" x="83.026" y="80.539" style="fill:#fff;fill-opacity:1"/><use xlink:href="#o" x="88.074" y="80.539" style="fill:#fff;fill-opacity:1"/><use xlink:href="#j" x="93.122" y="80.539" style="fill:#fff;fill-opacity:1"/><use xlink:href="#c" x="98.17" y="80.539" style="fill:#fff;fill-opacity:1"/><path d="M103.498 52.002h45v20h-45Zm0 0" style="fill-rule:nonzero;fill:#777;fill-opacity:1;stroke-width:1;stroke-linecap:butt;stroke-linejoin:miter;stroke:#222;stroke-opacity:1;stroke-miterlimit:4" transform="translate(.36 .36)scale(.7191)"/><use xlink:href="#p" x="80.865" y="48.18" style="fill:#fff;fill-opacity:1"/><use xlink:href="#j" x="85.913" y="48.18" style="fill:#fff;fill-opacity:1"/><use xlink:href="#g" x="90.961" y="48.18" style="fill:#fff;fill-opacity:1"/><use xlink:href="#j" x="96.009" y="48.18" style="fill:#fff;fill-opacity:1"/><path d="M110.5 11H56.62" style="fill:none;stroke-width:1;stroke-linecap:butt;stroke-linejoin:miter;stroke:#222;stroke-opacity:1;stroke-miterlimit:10" transform="translate(.36 .36)scale(.7191)"/><path d="M51.621 11 56.62 8.5v4.998Zm0 0" style="fill-rule:nonzero;fill:#222;fill-opacity:1;stroke-width:1;stroke-linecap:butt;stroke-linejoin:miter;stroke:#222;stroke-opacity:1;stroke-miterlimit:10" transform="translate(.36 .36)scale(.7191)"/><path d="M43.863 3.594H71.91v10.789H43.863Zm0 0" style="stroke:none;fill-rule:nonzero;fill:#fff;fill-opacity:1"/><use xlink:href="#q" x="43.91" y="11.506" style="fill:#222;fill-opacity:1"/><use xlink:href="#r" x="48.57" y="11.506" style="fill:#222;fill-opacity:1"/><use xlink:href="#s" x="53.23" y="11.506" style="fill:#222;fill-opacity:1"/><use xlink:href="#r" x="57.889" y="11.506" style="fill:#222;fill-opacity:1"/><use xlink:href="#t" x="62.549" y="11.506" style="fill:#222;fill-opacity:1"/><use xlink:href="#u" x="67.209" y="11.506" style="fill:#222;fill-opacity:1"/><path d="M125.998 97.43V78.12" style="fill:none;stroke-width:1;stroke-linecap:butt;stroke-linejoin:miter;stroke:#222;stroke-opacity:1;stroke-miterlimit:10" transform="translate(.36 .36)scale(.7191)"/><path d="m125.998 73.122 2.504 4.997H123.5Zm0 0" style="fill-rule:nonzero;fill:#222;fill-opacity:1;stroke-width:1;stroke-linecap:butt;stroke-linejoin:miter;stroke:#222;stroke-opacity:1;stroke-miterlimit:10" transform="translate(.36 .36)scale(.7191)"/><path d="M77.664 58.246h28.043v10.79H77.664Zm0 0" style="stroke:none;fill-rule:nonzero;fill:#fff;fill-opacity:1"/><use xlink:href="#q" x="77.708" y="66.157" style="fill:#222;fill-opacity:1"/><use xlink:href="#r" x="82.368" y="66.157" style="fill:#222;fill-opacity:1"/><use xlink:href="#s" x="87.027" y="66.157" style="fill:#222;fill-opacity:1"/><use xlink:href="#r" x="91.687" y="66.157" style="fill:#222;fill-opacity:1"/><use xlink:href="#t" x="96.347" y="66.157" style="fill:#222;fill-opacity:1"/><use xlink:href="#u" x="101.007" y="66.157" style="fill:#222;fill-opacity:1"/><path d="M125.998 143.43v-19.882" style="fill:none;stroke-width:1;stroke-linecap:butt;stroke-linejoin:miter;stroke:#222;stroke-opacity:1;stroke-miterlimit:10" transform="translate(.36 .36)scale(.7191)"/><path d="m125.998 118.55 2.504 4.998H123.5Zm0 0" style="fill-rule:nonzero;fill:#222;fill-opacity:1;stroke-width:1;stroke-linecap:butt;stroke-linejoin:miter;stroke:#222;stroke-opacity:1;stroke-miterlimit:10" transform="translate(.36 .36)scale(.7191)"/><path d="M79.82 90.605h23.73v10.79H79.82Zm0 0" style="stroke:none;fill-rule:nonzero;fill:#fff;fill-opacity:1"/><use xlink:href="#v" x="80.034" y="98.517" style="fill:#222;fill-opacity:1"/><use xlink:href="#w" x="84.693" y="98.517" style="fill:#222;fill-opacity:1"/><use xlink:href="#x" x="89.353" y="98.517" style="fill:#222;fill-opacity:1"/><use xlink:href="#y" x="94.013" y="98.517" style="fill:#222;fill-opacity:1"/><use xlink:href="#w" x="98.673" y="98.517" style="fill:#222;fill-opacity:1"/><path d="M173.122 157h28.757" style="fill:none;stroke-width:1;stroke-linecap:butt;stroke-linejoin:miter;stroke:#222;stroke-opacity:1;stroke-miterlimit:10" transform="translate(.36 .36)scale(.7191)"/><path d="m121.254 113.258 3.598-1.797v3.594Zm0 0" style="stroke:none;fill-rule:nonzero;fill:#222;fill-opacity:1"/><g clip-path="url(#z)"><path d="m168.119 157 5.003-2.5v4.998Zm0 0" style="fill:none;stroke-width:1;stroke-linecap:butt;stroke-linejoin:miter;stroke:#222;stroke-opacity:1;stroke-miterlimit:10" transform="translate(.36 .36)scale(.7191)"/></g><path d="m149.129 113.258-3.598 1.797v-3.594Zm0 0" style="stroke:none;fill-rule:nonzero;fill:#222;fill-opacity:1"/><g clip-path="url(#A)"><path d="m206.882 157-5.003 2.498V154.5Zm0 0" style="fill:none;stroke-width:1;stroke-linecap:butt;stroke-linejoin:miter;stroke:#222;stroke-opacity:1;stroke-miterlimit:10" transform="translate(.36 .36)scale(.7191)"/></g><use xlink:href="#x" x="125.337" y="122.247" style="fill:#222;fill-opacity:1"/><use xlink:href="#w" x="129.997" y="122.247" style="fill:#222;fill-opacity:1"/><use xlink:href="#B" x="134.657" y="122.247" style="fill:#222;fill-opacity:1"/><use xlink:href="#C" x="139.316" y="122.247" style="fill:#222;fill-opacity:1"/><use xlink:href="#D" x="143.976" y="122.247" style="fill:#222;fill-opacity:1"/><path d="m25.047 21.261-.049 40.741h33.75" style="fill:none;stroke-width:1;stroke-linecap:butt;stroke-linejoin:miter;stroke:#222;stroke-opacity:1;stroke-miterlimit:10" transform="translate(.36 .36)scale(.7191)"/><path d="M7.191 24.45h23.73v10.784H7.192Zm0 0" style="stroke:none;fill-rule:nonzero;fill:#fff;fill-opacity:1"/><use xlink:href="#E" x="7.404" y="32.36" style="fill:#222;fill-opacity:1"/><use xlink:href="#F" x="12.064" y="32.36" style="fill:#222;fill-opacity:1"/><use xlink:href="#G" x="16.724" y="32.36" style="fill:#222;fill-opacity:1"/><use xlink:href="#F" x="21.384" y="32.36" style="fill:#222;fill-opacity:1"/><use xlink:href="#H" x="26.044" y="32.36" style="fill:#222;fill-opacity:1"/><path d="M62.752 62.002c0 .26-.055.516-.152.766-.104.244-.25.456-.435.646-.19.185-.402.332-.652.435-.244.098-.5.152-.76.152-.266 0-.522-.054-.766-.152a2.1 2.1 0 0 1-.652-.435 2.1 2.1 0 0 1-.435-.646 2.1 2.1 0 0 1-.152-.766c0-.266.055-.521.152-.766q.157-.367.435-.652.285-.278.652-.434c.244-.098.5-.152.766-.152.26 0 .516.054.76.152.25.103.462.25.652.434q.278.285.435.652c.097.245.152.5.152.766Zm0 0" style="fill-rule:nonzero;fill:#fff;fill-opacity:1;stroke-width:1;stroke-linecap:butt;stroke-linejoin:miter;stroke:#222;stroke-opacity:1;stroke-miterlimit:4" transform="translate(.36 .36)scale(.7191)"/><path d="m45.488 44.586 2.157.02-.008.718-2.157-.02m4.32-.675 2.157.023-.008.72-2.156-.024m4.324-.672 2.156.023-.007.719-2.157-.023m4.32-.672 2.157.02-.008.718-2.156-.02m4.324-.675 2.156.023-.007.719-2.157-.024m4.32-.672 2.157.024-.008.719-2.156-.024" style="stroke:none;fill-rule:nonzero;fill:#222;fill-opacity:1"/><path d="m101.88 62.42-5.02 2.44.049-4.998Zm0 0" style="fill-rule:nonzero;fill:#222;fill-opacity:1;stroke-width:1;stroke-linecap:butt;stroke-linejoin:miter;stroke:#222;stroke-opacity:1;stroke-miterlimit:10" transform="translate(.36 .36)scale(.7191)"/><path d="m60.753 64.001.217 41.127" style="fill:none;stroke-width:1;stroke-linecap:butt;stroke-linejoin:miter;stroke:#222;stroke-opacity:1;stroke-miterlimit:10" transform="translate(.36 .36)scale(.7191)"/><path d="m60.992 108.881-2.52-4.98 2.498 1.227 2.499-1.26Zm0 0" style="fill-rule:nonzero;fill:#222;fill-opacity:1;stroke-width:1;stroke-linecap:butt;stroke-linejoin:miter;stroke:#222;stroke-opacity:1;stroke-miterlimit:10" transform="translate(.36 .36)scale(.7191)"/><path d="M26.246 49.258h35.238v21.574H26.246Zm0 0" style="stroke:none;fill-rule:nonzero;fill:#fff;fill-opacity:1"/><use xlink:href="#x" x="29.528" y="58.966" style="fill:#222;fill-opacity:1"/><use xlink:href="#I" x="34.188" y="58.966" style="fill:#222;fill-opacity:1"/><use xlink:href="#C" x="38.848" y="58.966" style="fill:#222;fill-opacity:1"/><use xlink:href="#w" x="43.507" y="58.966" style="fill:#222;fill-opacity:1"/><use xlink:href="#J" x="48.167" y="58.966" style="fill:#222;fill-opacity:1"/><use xlink:href="#F" x="52.827" y="58.966" style="fill:#222;fill-opacity:1"/><use xlink:href="#K" x="57.483" y="58.966" style="fill:#222;fill-opacity:1"/><path d="M25.168 58.965h36.676v10.07H25.168Zm0 0" style="stroke:none;fill-rule:nonzero;fill:#fff;fill-opacity:1"/><use xlink:href="#L" x="24.865" y="66.876" style="fill:#222;fill-opacity:1"/><use xlink:href="#x" x="29.525" y="66.876" style="fill:#222;fill-opacity:1"/><use xlink:href="#M" x="34.185" y="66.876" style="fill:#222;fill-opacity:1"/><use xlink:href="#y" x="38.844" y="66.876" style="fill:#222;fill-opacity:1"/><use xlink:href="#y" x="43.504" y="66.876" style="fill:#222;fill-opacity:1"/><use xlink:href="#w" x="48.164" y="66.876" style="fill:#222;fill-opacity:1"/><use xlink:href="#x" x="52.824" y="66.876" style="fill:#222;fill-opacity:1"/><use xlink:href="#J" x="57.484" y="66.876" style="fill:#222;fill-opacity:1"/><path d="M210 142.001h49.998v20.001H210Zm0 0" style="fill-rule:nonzero;fill:#222;fill-opacity:1;stroke-width:1;stroke-linecap:butt;stroke-linejoin:miter;stroke:#fff;stroke-opacity:1;stroke-miterlimit:4" transform="translate(.36 .36)scale(.7191)"/><use xlink:href="#N" x="153.843" y="112.899" style="fill:#fff;fill-opacity:1"/><use xlink:href="#e" x="158.891" y="112.899" style="fill:#fff;fill-opacity:1"/><use xlink:href="#O" x="163.939" y="112.899" style="fill:#fff;fill-opacity:1"/><use xlink:href="#n" x="168.987" y="112.899" style="fill:#fff;fill-opacity:1"/><use xlink:href="#g" x="174.035" y="112.899" style="fill:#fff;fill-opacity:1"/><use xlink:href="#e" x="179.083" y="112.899" style="fill:#fff;fill-opacity:1"/><path d="M209 141.002h49.998v20h-49.997Zm0 0" style="fill-rule:nonzero;fill:#fff;fill-opacity:1;stroke-width:1;stroke-linecap:butt;stroke-linejoin:miter;stroke:#222;stroke-opacity:1;stroke-miterlimit:4" transform="translate(.36 .36)scale(.7191)"/><use xlink:href="#N" x="153.124" y="112.18" style="fill:#222;fill-opacity:1"/><use xlink:href="#e" x="158.172" y="112.18" style="fill:#222;fill-opacity:1"/><use xlink:href="#O" x="163.22" y="112.18" style="fill:#222;fill-opacity:1"/><use xlink:href="#n" x="168.268" y="112.18" style="fill:#222;fill-opacity:1"/><use xlink:href="#g" x="173.316" y="112.18" style="fill:#222;fill-opacity:1"/><use xlink:href="#e" x="178.364" y="112.18" style="fill:#222;fill-opacity:1"/><path d="M212 144h50.002v20.001H212Zm0 0" style="fill-rule:nonzero;fill:#fff;fill-opacity:1;stroke-width:1;stroke-linecap:butt;stroke-linejoin:miter;stroke:#222;stroke-opacity:1;stroke-miterlimit:4" transform="translate(.36 .36)scale(.7191)"/><use xlink:href="#N" x="155.281" y="114.337" style="fill:#222;fill-opacity:1"/><use xlink:href="#e" x="160.329" y="114.337" style="fill:#222;fill-opacity:1"/><use xlink:href="#O" x="165.377" y="114.337" style="fill:#222;fill-opacity:1"/><use xlink:href="#n" x="170.425" y="114.337" style="fill:#222;fill-opacity:1"/><use xlink:href="#g" x="175.473" y="114.337" style="fill:#222;fill-opacity:1"/><use xlink:href="#e" x="180.521" y="114.337" style="fill:#222;fill-opacity:1"/><path d="M214.998 146.999h50.003v20h-50.003Zm0 0" style="fill-rule:nonzero;fill:#fff;fill-opacity:1;stroke-width:1;stroke-linecap:butt;stroke-linejoin:miter;stroke:#222;stroke-opacity:1;stroke-miterlimit:4" transform="translate(.36 .36)scale(.7191)"/><use xlink:href="#N" x="157.438" y="116.494" style="fill:#222;fill-opacity:1"/><use xlink:href="#e" x="162.486" y="116.494" style="fill:#222;fill-opacity:1"/><use xlink:href="#O" x="167.534" y="116.494" style="fill:#222;fill-opacity:1"/><use xlink:href="#n" x="172.582" y="116.494" style="fill:#222;fill-opacity:1"/><use xlink:href="#g" x="177.631" y="116.494" style="fill:#222;fill-opacity:1"/><use xlink:href="#e" x="182.679" y="116.494" style="fill:#222;fill-opacity:1"/><path d="M61.003 102.998v50.003H78.88" style="fill:none;stroke-width:1;stroke-linecap:butt;stroke-linejoin:miter;stroke:#222;stroke-opacity:1;stroke-miterlimit:10" transform="translate(.36 .36)scale(.7191)"/><path d="M83.883 153.001 78.88 155.5v-4.998Zm0 0" style="fill-rule:nonzero;fill:#222;fill-opacity:1;stroke-width:1;stroke-linecap:butt;stroke-linejoin:miter;stroke:#222;stroke-opacity:1;stroke-miterlimit:10" transform="translate(.36 .36)scale(.7191)"/><path d="M31.64 82.695h28.044v10.79H31.64Zm0 0" style="stroke:none;fill-rule:nonzero;fill:#fff;fill-opacity:1"/><use xlink:href="#E" x="31.685" y="90.607" style="fill:#222;fill-opacity:1"/><use xlink:href="#P" x="36.345" y="90.607" style="fill:#222;fill-opacity:1"/><use xlink:href="#q" x="41.005" y="90.607" style="fill:#222;fill-opacity:1"/><use xlink:href="#r" x="45.665" y="90.607" style="fill:#222;fill-opacity:1"/><use xlink:href="#Q" x="50.324" y="90.607" style="fill:#222;fill-opacity:1"/><use xlink:href="#u" x="54.984" y="90.607" style="fill:#222;fill-opacity:1"/><path d="M110.5 1H135.5v20H110.5Zm0 0" style="fill-rule:nonzero;fill:#777;fill-opacity:1;stroke-width:1;stroke-linecap:butt;stroke-linejoin:miter;stroke:#222;stroke-opacity:1;stroke-miterlimit:4" transform="translate(.36 .36)scale(.7191)"/><use xlink:href="#R" x="81.236" y="11.506" style="fill:#fff;fill-opacity:1"/><use xlink:href="#S" x="86.284" y="11.506" style="fill:#fff;fill-opacity:1"/><use xlink:href="#k" x="91.332" y="11.506" style="fill:#fff;fill-opacity:1"/><path d="M113.499 3.998h24.998v20H113.5Zm0 0" style="fill-rule:nonzero;fill:#777;fill-opacity:1;stroke-width:1;stroke-linecap:butt;stroke-linejoin:miter;stroke:#222;stroke-opacity:1;stroke-miterlimit:4" transform="translate(.36 .36)scale(.7191)"/><use xlink:href="#N" x="85.91" y="13.663" style="fill:#fff;fill-opacity:1"/><use xlink:href="#T" x="90.958" y="13.663" style="fill:#fff;fill-opacity:1"/><path d="M116.503 7.002H141.5v19.995h-24.998Zm0 0" style="fill-rule:nonzero;fill:#777;fill-opacity:1;stroke-width:1;stroke-linecap:butt;stroke-linejoin:miter;stroke:#222;stroke-opacity:1;stroke-miterlimit:4" transform="translate(.36 .36)scale(.7191)"/><use xlink:href="#U" x="88.067" y="15.82" style="fill:#fff;fill-opacity:1"/><use xlink:href="#T" x="93.115" y="15.82" style="fill:#fff;fill-opacity:1"/><path d="M125.927 52.002V32.69" style="fill:none;stroke-width:1;stroke-linecap:butt;stroke-linejoin:miter;stroke:#222;stroke-opacity:1;stroke-miterlimit:10" transform="translate(.36 .36)scale(.7191)"/><path d="m125.927 27.687 2.505 5.003h-5.003Zm0 0" style="fill-rule:nonzero;fill:#222;fill-opacity:1;stroke-width:1;stroke-linecap:butt;stroke-linejoin:miter;stroke:#222;stroke-opacity:1;stroke-miterlimit:10" transform="translate(.36 .36)scale(.7191)"/><path d="M76.945 25.887h28.043v10.789H76.945Zm0 0" style="stroke:none;fill-rule:nonzero;fill:#fff;fill-opacity:1"/><use xlink:href="#q" x="76.989" y="33.798" style="fill:#222;fill-opacity:1"/><use xlink:href="#r" x="81.649" y="33.798" style="fill:#222;fill-opacity:1"/><use xlink:href="#s" x="86.308" y="33.798" style="fill:#222;fill-opacity:1"/><use xlink:href="#r" x="90.968" y="33.798" style="fill:#222;fill-opacity:1"/><use xlink:href="#t" x="95.628" y="33.798" style="fill:#222;fill-opacity:1"/><use xlink:href="#u" x="100.288" y="33.798" style="fill:#222;fill-opacity:1"/><path d="m120.074 106.418 2.16.004v.719h-2.16Zm4.317.004 2.156.004v.719h-2.156Zm3.605.023-.023-2.156.718-.008.024 2.156Zm-.05-4.312-.024-2.16.719-.008.023 2.156Zm-.051-4.317-.024-2.156.719-.008.023 2.157Zm-.051-4.312-.024-2.16.72-.008.026 2.16Zm-.047-4.317-.027-2.156.718-.008.028 2.157Zm-.05-4.312-.028-2.156.719-.012.027 2.16Zm-.052-4.316-.027-2.157.723-.007.023 2.156Zm-.05-4.313-.024-2.156.719-.012.023 2.16Zm-.051-4.316-.024-2.157.72-.007.023 2.156Zm-.051-4.313-.023-2.156.718-.008.024 2.156Zm-.047-4.316-.027-2.156.719-.008.027 2.156Zm-.05-4.313-.028-2.156.719-.008.027 2.156Zm-.051-4.316-.028-2.156.723-.008.023 2.156Zm-.051-4.313-.024-2.156.72-.008.023 2.157Zm-.051-4.312-.012-1.098.36-.004v.36h-1.059v-.72h1.414l.016 1.45Zm-2.871-.742h-2.156v-.72h2.156Zm-4.313 0h-2.16v-.72h2.16Zm-4.316 0h-2.156v-.72h2.156Zm0 0" style="stroke:none;fill-rule:nonzero;fill:#222;fill-opacity:1"/><path d="m149.622 62.002 4.998-2.504V64.5Zm0 0" style="fill-rule:nonzero;fill:#222;fill-opacity:1;stroke-width:1;stroke-linecap:butt;stroke-linejoin:miter;stroke:#222;stroke-opacity:1;stroke-miterlimit:10" transform="translate(.36 .36)scale(.7191)"/><path d="M122.27 87.066V59.02h10.785v28.046Zm0 0" style="stroke:none;fill-rule:nonzero;fill:#fff;fill-opacity:1"/><use xlink:href="#V" x="130.179" y="87.02" style="fill:#222;fill-opacity:1"/><use xlink:href="#W" x="130.179" y="82.361" style="fill:#222;fill-opacity:1"/><use xlink:href="#X" x="130.179" y="77.701" style="fill:#222;fill-opacity:1"/><use xlink:href="#W" x="130.179" y="73.041" style="fill:#222;fill-opacity:1"/><use xlink:href="#Y" x="130.179" y="68.381" style="fill:#222;fill-opacity:1"/><use xlink:href="#Z" x="130.179" y="63.722" style="fill:#222;fill-opacity:1"/><path d="M131.598 89.883v-32.36h10.785v32.36Zm0 0" style="stroke:none;fill-rule:nonzero;fill:#fff;fill-opacity:1"/><use xlink:href="#aa" x="139.506" y="90.017" style="fill:#222;fill-opacity:1"/><use xlink:href="#ab" x="139.506" y="85.357" style="fill:#222;fill-opacity:1"/><use xlink:href="#ac" x="139.506" y="80.697" style="fill:#222;fill-opacity:1"/><use xlink:href="#ad" x="139.506" y="76.038" style="fill:#222;fill-opacity:1"/><use xlink:href="#ae" x="139.506" y="71.378" style="fill:#222;fill-opacity:1"/><use xlink:href="#af" x="139.506" y="66.718" style="fill:#222;fill-opacity:1"/><use xlink:href="#ag" x="139.506" y="62.058" style="fill:#222;fill-opacity:1"/></svg>