<svg xmlns="http://www.w3.org/2000/svg" xml:space="preserve" width="634.016" height="182.46" viewBox="0 0 167.75 48.276"><g fill="#fff" stroke="#fff" stroke-width="3.559" pointer-events="none"><path d="M4.49 1.781a2.706 2.706 0 0 0-2.71 2.71v25.055a2.706 2.706 0 0 0 2.71 2.711h25.056a2.706 2.706 0 0 0 2.71-2.71V4.491a2.706 2.706 0 0 0-2.71-2.711z"/><path stroke-miterlimit="10" d="M8.9 2.782v28.475M31.256 8.901H2.78"/><path d="M8.899 8.9v23.358h23.358V8.901z"/><path d="M11.61 8.9a2.706 2.706 0 0 0-2.71 2.711v25.055a2.706 2.706 0 0 0 2.71 2.711h25.056a2.706 2.706 0 0 0 2.71-2.71V11.611a2.706 2.706 0 0 0-2.71-2.711z"/><path stroke-miterlimit="10" d="M16.019 9.901v28.475M38.375 16.02H9.9"/><path d="M16.018 16.019v23.358h23.358V16.019z"/><path d="M18.729 16.019a2.706 2.706 0 0 0-2.711 2.711v25.055a2.706 2.706 0 0 0 2.71 2.711h25.056a2.706 2.706 0 0 0 2.71-2.711V18.73a2.706 2.706 0 0 0-2.71-2.711z"/><path stroke-miterlimit="10" d="M23.138 17.02v28.475m22.356-22.356H17.019"/><path d="M23.136 23.137v23.36h23.36v-23.36z"/></g><g stroke="#222" pointer-events="none" transform="translate(2.78 2.782)scale(3.5594)"><rect width="8" height="8" fill="#ffe599" rx=".48" ry=".48"/><path fill="none" stroke-miterlimit="10" d="M2 8V0M0 2h8"/><path fill="#fff2cc" d="M2 2h6v6H2z"/><rect width="8" height="8" x="2" y="2" fill="#ffe599" rx=".48" ry=".48"/><path fill="none" stroke-miterlimit="10" d="M4 10V2M2 4h8"/><path fill="#fff2cc" d="M4 4h6v6H4z"/><rect width="8" height="8" x="4" y="4" fill="#ffe599" rx=".48" ry=".48"/><path fill="none" stroke-miterlimit="10" d="M6 12V4M4 6h8"/><path fill="#fff2cc" d="M6 6h6v6H6z"/></g><g fill="#222" stroke="#fff" aria-label="CRDV"><path d="M83.323 29.001q-.145 3.142-1.695 5.56-1.55 2.398-4.362 3.721-2.79 1.323-6.387 1.323-5.932 0-9.343-3.866t-3.41-10.914v-1.488q0-4.423 1.529-7.73 1.55-3.328 4.444-5.127 2.894-1.819 6.697-1.819 5.478 0 8.806 2.894 3.328 2.873 3.783 7.937H76.15q-.083-2.749-1.385-3.948t-3.969-1.198q-2.707 0-3.968 2.025t-1.323 6.47v2.13q0 4.815 1.199 6.882 1.22 2.067 4.175 2.067 2.501 0 3.824-1.178t1.406-3.741zM97.937 28.571h-3.928v10.625h-7.255V9.1h11.844q5.354 0 8.371 2.377t3.018 6.718q0 3.142-1.281 5.209-1.261 2.067-3.969 3.349l6.284 12.134v.31h-7.772zm-3.928-5.602h4.59q2.066 0 3.1-1.075 1.054-1.095 1.054-3.038t-1.054-3.039q-1.054-1.116-3.1-1.116h-4.59zM114.37 39.191V9.095h9.695q3.99 0 7.173 1.819 3.183 1.798 4.96 5.106 1.799 3.286 1.82 7.379v1.385q0 4.134-1.757 7.42-1.737 3.266-4.92 5.127-3.163 1.84-7.07 1.86zm7.256-24.494V33.61h2.522q3.121 0 4.795-2.212 1.675-2.232 1.675-6.614v-1.302q0-4.362-1.675-6.574-1.674-2.211-4.878-2.211zM152.96 31.011 158.956 9.1h8.103L156.93 39.196h-7.937L138.947 9.1h8.04z"/></g></svg>