<svg xmlns="http://www.w3.org/2000/svg" xml:space="preserve" width="646.035" height="182.457" viewBox="0 0 170.93 48.275"><g fill="#fff" stroke="#fff" pointer-events="none"><path stroke-width="3.5594" d="M4.491 1.78A2.706 2.706 0 0 0 1.78 4.49v25.055a2.706 2.706 0 0 0 2.711 2.711h25.055a2.706 2.706 0 0 0 2.711-2.71V4.49a2.706 2.706 0 0 0-2.71-2.711z"/><path stroke-miterlimit="10" stroke-width="3.5594" d="M8.9 2.781v28.475M31.256 8.9H2.781"/><path stroke-width="3.5594" d="M8.899 8.899v23.358h23.358V8.9z"/><path stroke-width="3.5594" d="M11.61 8.899A2.706 2.706 0 0 0 8.9 11.61v25.055a2.706 2.706 0 0 0 2.711 2.711h25.055a2.706 2.706 0 0 0 2.711-2.71V11.61a2.706 2.706 0 0 0-2.71-2.711z"/><path stroke-miterlimit="10" stroke-width="3.5594" d="M16.019 9.9v28.475M38.375 16.019H9.9"/><path stroke-width="3.5594" d="M16.018 16.018v23.358h23.358V16.018z"/><path stroke-width="3.5594" d="M18.729 16.018a2.706 2.706 0 0 0-2.711 2.711v25.055a2.706 2.706 0 0 0 2.71 2.711h25.056a2.706 2.706 0 0 0 2.711-2.711V18.729a2.706 2.706 0 0 0-2.711-2.711z"/><path stroke-miterlimit="10" stroke-width="3.5594" d="M23.138 17.019v28.475M45.494 23.138H17.019"/><path stroke-width="3.5594" d="M23.136 23.136v23.36h23.36v-23.36z"/></g><g stroke="#222" pointer-events="none" transform="translate(2.781 2.781)scale(3.5594)"><rect width="8" height="8" fill="#ffe599" rx=".48" ry=".48"/><path fill="none" stroke-miterlimit="10" d="M2 8V0M0 2h8"/><path fill="#fff2cc" d="M2 2h6v6H2z"/><rect width="8" height="8" x="2" y="2" fill="#ffe599" rx=".48" ry=".48"/><path fill="none" stroke-miterlimit="10" d="M4 10V2M2 4h8"/><path fill="#fff2cc" d="M4 4h6v6H4z"/><rect width="8" height="8" x="4" y="4" fill="#ffe599" rx=".48" ry=".48"/><path fill="none" stroke-miterlimit="10" d="M6 12V4M4 6h8"/><path fill="#fff2cc" d="M6 6h6v6H6z"/></g><text xml:space="preserve" x="52.404" y="145.951" fill="#392093" stroke="#fff" stroke-width="1" aria-label="CRDV" font-family="Roboto" font-size="42.333" font-weight="900" transform="translate(6.941 -106.755)"><tspan x="52.404" y="145.951" fill="#222">CRDV</tspan></text></svg>